<?xml version="1.0" encoding="UTF-8" standalone="no"?>
<!-- Created with Inkscape (http://www.inkscape.org/) -->

<svg
   width="450mm"
   height="450mm"
   viewBox="0 0 450 450"
   version="1.1"
   id="svg6416"
   inkscape:version="1.1 (c68e22c387, 2021-05-23)"
   sodipodi:docname="swarm_rules_english_2.svg"
   xmlns:inkscape="http://www.inkscape.org/namespaces/inkscape"
   xmlns:sodipodi="http://sodipodi.sourceforge.net/DTD/sodipodi-0.dtd"
   xmlns="http://www.w3.org/2000/svg"
   xmlns:svg="http://www.w3.org/2000/svg">
  <sodipodi:namedview
     id="namedview6418"
     pagecolor="#ffffff"
     bordercolor="#666666"
     borderopacity="1.0"
     inkscape:pageshadow="2"
     inkscape:pageopacity="0.0"
     inkscape:pagecheckerboard="0"
     inkscape:document-units="mm"
     showgrid="false"
     inkscape:zoom="0.52410025"
     inkscape:cx="764.16679"
     inkscape:cy="502.76641"
     inkscape:window-width="1920"
     inkscape:window-height="1017"
     inkscape:window-x="-8"
     inkscape:window-y="-8"
     inkscape:window-maximized="1"
     inkscape:current-layer="layer1"
     units="mm"
     width="1682mm" />
  <defs
     id="defs6413">
    <clipPath
       id="_clip1">
      <path
         d="m 1367.36,1249.5 4.47,-0.39 c 0.21,1.79 0.7,3.26 1.47,4.41 0.78,1.14 1.98,2.07 3.6,2.78 1.63,0.71 3.46,1.06 5.5,1.06 1.8,0 3.4,-0.27 4.78,-0.8 1.39,-0.54 2.42,-1.28 3.09,-2.21 0.68,-0.94 1.02,-1.96 1.02,-3.07 0,-1.12 -0.33,-2.1 -0.98,-2.94 -0.65,-0.84 -1.73,-1.54 -3.22,-2.11 -0.97,-0.38 -3.09,-0.96 -6.38,-1.75 -3.28,-0.79 -5.59,-1.53 -6.91,-2.23 -1.7,-0.9 -2.98,-2.01 -3.82,-3.33 -0.84,-1.33 -1.25,-2.82 -1.25,-4.46 0,-1.81 0.51,-3.5 1.53,-5.07 1.03,-1.57 2.53,-2.76 4.5,-3.57 1.97,-0.82 4.15,-1.22 6.56,-1.22 2.66,0 5,0.42 7.02,1.28 2.03,0.85 3.59,2.11 4.68,3.77 1.09,1.66 1.67,3.54 1.76,5.64 l -4.54,0.34 c -0.25,-2.26 -1.08,-3.97 -2.48,-5.12 -1.41,-1.16 -3.49,-1.74 -6.24,-1.74 -2.87,0 -4.95,0.53 -6.26,1.58 -1.31,1.05 -1.97,2.31 -1.97,3.79 0,1.29 0.47,2.35 1.39,3.18 0.92,0.83 3.3,1.68 7.14,2.55 3.85,0.87 6.5,1.63 7.93,2.28 2.08,0.96 3.62,2.18 4.61,3.65 0.99,1.47 1.49,3.17 1.49,5.09 0,1.91 -0.54,3.7 -1.64,5.38 -1.09,1.69 -2.65,3 -4.69,3.93 -2.05,0.94 -4.35,1.41 -6.9,1.41 -3.24,0 -5.96,-0.47 -8.14,-1.42 -2.19,-0.94 -3.91,-2.36 -5.16,-4.26 -1.24,-1.89 -1.9,-4.04 -1.96,-6.43 z m 52.15,3.15 4.54,0.56 c -0.72,2.65 -2.04,4.71 -3.98,6.18 -1.94,1.46 -4.41,2.19 -7.42,2.19 -3.79,0 -6.8,-1.16 -9.02,-3.5 -2.23,-2.33 -3.34,-5.61 -3.34,-9.83 0,-4.36 1.13,-7.74 3.37,-10.15 2.25,-2.41 5.16,-3.61 8.74,-3.61 3.47,0 6.3,1.17 8.5,3.54 2.2,2.35 3.29,5.67 3.29,9.96 0,0.26 0,0.65 -0.02,1.17 h -19.33 c 0.16,2.85 0.96,5.03 2.41,6.54 1.45,1.51 3.26,2.27 5.42,2.27 1.61,0 2.99,-0.42 4.13,-1.27 1.14,-0.84 2.04,-2.2 2.71,-4.05 z m -14.43,-7.11 h 14.48 c -0.2,-2.18 -0.75,-3.81 -1.66,-4.9 -1.4,-1.7 -3.22,-2.54 -5.45,-2.54 -2.02,0 -3.71,0.67 -5.09,2.02 -1.37,1.36 -2.13,3.16 -2.28,5.42 z m 24.49,25.39 v -35.86 h 4 v 3.37 c 0.94,-1.32 2.01,-2.31 3.2,-2.97 1.19,-0.66 2.63,-0.98 4.32,-0.98 2.21,0 4.17,0.57 5.86,1.7 1.69,1.14 2.97,2.75 3.83,4.83 0.86,2.07 1.3,4.35 1.3,6.82 0,2.65 -0.48,5.04 -1.43,7.17 -0.95,2.12 -2.34,3.75 -4.15,4.88 -1.82,1.13 -3.73,1.69 -5.73,1.69 -1.46,0 -2.78,-0.3 -3.94,-0.92 -1.16,-0.62 -2.12,-1.4 -2.87,-2.35 v 12.62 z m 3.98,-22.75 c 0,3.34 0.67,5.8 2.02,7.4 1.35,1.59 2.99,2.39 4.91,2.39 1.95,0 3.63,-0.83 5.02,-2.48 1.39,-1.65 2.08,-4.21 2.08,-7.67 0,-3.31 -0.68,-5.78 -2.03,-7.43 -1.36,-1.64 -2.99,-2.46 -4.88,-2.46 -1.87,0 -3.52,0.87 -4.96,2.62 -1.44,1.75 -2.16,4.3 -2.16,7.63 z m 40.74,9.62 c -1.63,1.38 -3.19,2.36 -4.7,2.93 -1.5,0.57 -3.12,0.85 -4.84,0.85 -2.85,0 -5.04,-0.69 -6.57,-2.08 -1.53,-1.39 -2.3,-3.17 -2.3,-5.34 0,-1.27 0.29,-2.43 0.87,-3.48 0.58,-1.05 1.34,-1.89 2.27,-2.52 0.94,-0.64 1.99,-1.12 3.16,-1.44 0.87,-0.23 2.17,-0.45 3.91,-0.66 3.55,-0.43 6.16,-0.93 7.84,-1.52 0.01,-0.6 0.02,-0.98 0.02,-1.14 0,-1.79 -0.41,-3.06 -1.24,-3.79 -1.13,-0.99 -2.8,-1.49 -5.01,-1.49 -2.07,0 -3.59,0.37 -4.58,1.09 -0.98,0.72 -1.71,2 -2.18,3.84 l -4.3,-0.58 c 0.39,-1.84 1.03,-3.33 1.93,-4.46 0.89,-1.13 2.19,-2 3.88,-2.61 1.69,-0.61 3.66,-0.91 5.89,-0.91 2.21,0 4.01,0.26 5.39,0.78 1.39,0.52 2.4,1.17 3.05,1.96 0.65,0.79 1.11,1.79 1.37,2.99 0.15,0.75 0.22,2.1 0.22,4.06 v 5.85 c 0,4.09 0.09,6.67 0.28,7.76 0.19,1.08 0.56,2.12 1.11,3.11 h -4.59 c -0.45,-0.91 -0.75,-1.98 -0.88,-3.2 z m -0.36,-9.81 c -1.6,0.65 -3.99,1.2 -7.18,1.66 -1.81,0.26 -3.09,0.55 -3.83,0.88 -0.75,0.32 -1.33,0.8 -1.74,1.42 -0.4,0.63 -0.61,1.33 -0.61,2.09 0,1.17 0.45,2.15 1.33,2.93 0.89,0.78 2.19,1.17 3.9,1.17 1.69,0 3.2,-0.37 4.51,-1.11 1.32,-0.74 2.29,-1.75 2.91,-3.04 0.47,-0.99 0.71,-2.46 0.71,-4.39 z m 11.2,13.01 v -25.93 h 3.96 v 3.93 c 1.01,-1.84 1.94,-3.05 2.79,-3.64 0.86,-0.58 1.8,-0.87 2.82,-0.87 1.48,0 2.99,0.47 4.52,1.41 l -1.51,4.08 c -1.08,-0.64 -2.15,-0.95 -3.23,-0.95 -0.96,0 -1.82,0.29 -2.59,0.86 -0.76,0.58 -1.3,1.38 -1.63,2.41 -0.49,1.56 -0.73,3.27 -0.73,5.12 V 1261 Z m 33.62,-3.2 c -1.63,1.38 -3.19,2.36 -4.7,2.93 -1.5,0.57 -3.12,0.85 -4.85,0.85 -2.84,0 -5.03,-0.69 -6.56,-2.08 -1.53,-1.39 -2.3,-3.17 -2.3,-5.34 0,-1.27 0.29,-2.43 0.87,-3.48 0.58,-1.05 1.33,-1.89 2.27,-2.52 0.94,-0.64 1.99,-1.12 3.16,-1.44 0.86,-0.23 2.17,-0.45 3.91,-0.66 3.55,-0.43 6.16,-0.93 7.83,-1.52 0.02,-0.6 0.03,-0.98 0.03,-1.14 0,-1.79 -0.42,-3.06 -1.25,-3.79 -1.12,-0.99 -2.79,-1.49 -5,-1.49 -2.07,0 -3.59,0.37 -4.58,1.09 -0.98,0.72 -1.71,2 -2.18,3.84 l -4.3,-0.58 c 0.39,-1.84 1.03,-3.33 1.93,-4.46 0.89,-1.13 2.19,-2 3.88,-2.61 1.69,-0.61 3.65,-0.91 5.88,-0.91 2.22,0 4.02,0.26 5.4,0.78 1.38,0.52 2.4,1.17 3.05,1.96 0.65,0.79 1.11,1.79 1.37,2.99 0.15,0.75 0.22,2.1 0.22,4.06 v 5.85 c 0,4.09 0.09,6.67 0.28,7.76 0.19,1.08 0.56,2.12 1.11,3.11 h -4.59 c -0.46,-0.91 -0.75,-1.98 -0.88,-3.2 z m -0.37,-9.81 c -1.59,0.65 -3.98,1.2 -7.17,1.66 -1.81,0.26 -3.09,0.55 -3.84,0.88 -0.75,0.32 -1.32,0.8 -1.73,1.42 -0.41,0.63 -0.61,1.33 -0.61,2.09 0,1.17 0.44,2.15 1.33,2.93 0.89,0.78 2.19,1.17 3.9,1.17 1.69,0 3.19,-0.37 4.51,-1.11 1.32,-0.74 2.29,-1.75 2.91,-3.04 0.47,-0.99 0.7,-2.46 0.7,-4.39 z m 20.85,9.08 0.64,3.88 c -1.24,0.26 -2.34,0.39 -3.32,0.39 -1.6,0 -2.83,-0.25 -3.71,-0.76 -0.88,-0.5 -1.5,-1.16 -1.86,-1.99 -0.36,-0.82 -0.54,-2.55 -0.54,-5.18 v -14.92 h -3.22 v -3.42 h 3.22 v -6.42 l 4.38,-2.64 v 9.06 h 4.41 v 3.42 h -4.41 v 15.16 c 0,1.25 0.07,2.06 0.23,2.42 0.15,0.35 0.4,0.64 0.75,0.85 0.35,0.21 0.85,0.32 1.51,0.32 0.48,0 1.13,-0.06 1.92,-0.17 z m 4.33,-26.81 v -5.05 h 4.39 v 5.05 z m 0,30.74 v -25.93 h 4.39 V 1261 Z m 9.44,-12.96 c 0,-4.81 1.34,-8.36 4.01,-10.67 2.23,-1.93 4.95,-2.88 8.15,-2.88 3.57,0 6.48,1.16 8.74,3.5 2.26,2.33 3.4,5.56 3.4,9.68 0,3.34 -0.5,5.96 -1.51,7.87 -1,1.91 -2.45,3.4 -4.37,4.46 -1.91,1.06 -4,1.58 -6.26,1.58 -3.63,0 -6.56,-1.16 -8.8,-3.49 -2.24,-2.32 -3.36,-5.68 -3.36,-10.05 z m 4.52,0 c 0,3.32 0.73,5.8 2.17,7.45 1.45,1.65 3.28,2.48 5.47,2.48 2.18,0 4,-0.83 5.45,-2.49 1.45,-1.66 2.17,-4.19 2.17,-7.59 0,-3.21 -0.73,-5.64 -2.19,-7.29 -1.45,-1.65 -3.26,-2.48 -5.43,-2.48 -2.19,0 -4.02,0.82 -5.47,2.47 -1.44,1.64 -2.17,4.12 -2.17,7.45 z m 24.93,12.96 v -25.93 h 3.95 v 3.69 c 1.91,-2.85 4.66,-4.27 8.25,-4.27 1.57,0 3,0.28 4.31,0.84 1.31,0.56 2.29,1.29 2.94,2.21 0.66,0.91 1.11,1.99 1.37,3.24 0.16,0.82 0.25,2.24 0.25,4.28 V 1261 h -4.4 v -15.77 c 0,-1.79 -0.17,-3.13 -0.51,-4.02 -0.34,-0.89 -0.95,-1.59 -1.82,-2.12 -0.87,-0.53 -1.89,-0.8 -3.06,-0.8 -1.87,0 -3.49,0.6 -4.85,1.79 -1.36,1.18 -2.04,3.44 -2.04,6.76 V 1261 Z m -154,51.63 -9.86,-25.92 h 4.64 l 5.57,15.52 c 0.6,1.68 1.15,3.42 1.66,5.23 0.39,-1.37 0.93,-3.01 1.63,-4.93 l 5.77,-15.82 h 4.51 l -9.81,25.92 z m 35.55,-8.34 4.54,0.56 c -0.71,2.65 -2.04,4.71 -3.98,6.17 -1.93,1.47 -4.41,2.2 -7.42,2.2 -3.79,0 -6.8,-1.17 -9.02,-3.5 -2.22,-2.34 -3.33,-5.61 -3.33,-9.83 0,-4.36 1.12,-7.75 3.37,-10.16 2.24,-2.4 5.16,-3.61 8.74,-3.61 3.47,0 6.3,1.18 8.49,3.54 2.2,2.36 3.3,5.68 3.3,9.96 0,0.26 -0.01,0.65 -0.03,1.17 h -19.33 c 0.16,2.85 0.97,5.03 2.42,6.55 1.44,1.51 3.25,2.27 5.42,2.27 1.61,0 2.98,-0.43 4.12,-1.27 1.14,-0.85 2.05,-2.2 2.71,-4.05 z m -14.43,-7.11 h 14.48 c -0.19,-2.18 -0.75,-3.82 -1.66,-4.91 -1.4,-1.69 -3.21,-2.54 -5.44,-2.54 -2.02,0 -3.72,0.68 -5.09,2.03 -1.38,1.35 -2.14,3.16 -2.29,5.42 z m 41.41,5.96 4.32,0.56 c -0.47,2.98 -1.68,5.31 -3.62,6.99 -1.95,1.69 -4.34,2.53 -7.17,2.53 -3.55,0 -6.4,-1.16 -8.56,-3.48 -2.15,-2.32 -3.23,-5.64 -3.23,-9.97 0,-2.8 0.46,-5.25 1.39,-7.35 0.93,-2.1 2.34,-3.67 4.24,-4.73 1.89,-1.05 3.96,-1.57 6.18,-1.57 2.82,0 5.12,0.71 6.91,2.14 1.79,1.42 2.94,3.44 3.45,6.06 l -4.28,0.66 c -0.4,-1.74 -1.12,-3.05 -2.16,-3.93 -1.03,-0.88 -2.28,-1.32 -3.75,-1.32 -2.21,0 -4.01,0.8 -5.39,2.38 -1.38,1.59 -2.07,4.1 -2.07,7.54 0,3.48 0.66,6.01 2,7.59 1.33,1.58 3.07,2.37 5.22,2.37 1.73,0 3.17,-0.53 4.32,-1.59 1.16,-1.06 1.89,-2.69 2.2,-4.88 z m 17.68,5.56 0.63,3.89 c -1.24,0.26 -2.34,0.39 -3.32,0.39 -1.59,0 -2.83,-0.26 -3.71,-0.76 -0.88,-0.51 -1.5,-1.17 -1.86,-1.99 -0.35,-0.82 -0.53,-2.55 -0.53,-5.19 v -14.92 h -3.23 v -3.41 h 3.23 v -6.42 l 4.37,-2.64 v 9.06 h 4.42 v 3.41 h -4.42 v 15.17 c 0,1.25 0.07,2.06 0.23,2.41 0.15,0.36 0.41,0.65 0.76,0.86 0.35,0.21 0.85,0.31 1.5,0.31 0.48,0 1.13,-0.05 1.93,-0.17 z m 2.66,-9.03 c 0,-4.8 1.33,-8.36 4,-10.67 2.23,-1.92 4.95,-2.88 8.16,-2.88 3.56,0 6.47,1.17 8.74,3.5 2.26,2.34 3.39,5.57 3.39,9.68 0,3.34 -0.5,5.97 -1.5,7.88 -1,1.91 -2.46,3.4 -4.37,4.45 -1.91,1.06 -4,1.59 -6.26,1.59 -3.63,0 -6.57,-1.16 -8.81,-3.49 -2.23,-2.33 -3.35,-5.68 -3.35,-10.06 z m 4.51,0 c 0,3.32 0.73,5.81 2.18,7.46 1.44,1.65 3.27,2.48 5.47,2.48 2.18,0 3.99,-0.83 5.44,-2.49 1.45,-1.66 2.17,-4.19 2.17,-7.6 0,-3.2 -0.73,-5.63 -2.18,-7.28 -1.46,-1.66 -3.27,-2.48 -5.43,-2.48 -2.2,0 -4.03,0.82 -5.47,2.46 -1.45,1.65 -2.18,4.13 -2.18,7.45 z m 24.88,12.96 v -25.92 h 3.96 v 3.93 c 1,-1.84 1.94,-3.05 2.79,-3.64 0.86,-0.59 1.8,-0.88 2.82,-0.88 1.48,0 2.99,0.47 4.52,1.42 l -1.52,4.07 c -1.07,-0.63 -2.14,-0.95 -3.22,-0.95 -0.96,0 -1.82,0.29 -2.59,0.87 -0.76,0.58 -1.31,1.38 -1.63,2.4 -0.49,1.57 -0.73,3.27 -0.73,5.13 v 13.57 z"
         clip-rule="nonzero"
         id="path3794" />
    </clipPath>
    <clipPath
       id="_clip1-0">
      <path
         d="m 1367.36,1249.5 4.47,-0.39 c 0.21,1.79 0.7,3.26 1.47,4.41 0.78,1.14 1.98,2.07 3.6,2.78 1.63,0.71 3.46,1.06 5.5,1.06 1.8,0 3.4,-0.27 4.78,-0.8 1.39,-0.54 2.42,-1.28 3.09,-2.21 0.68,-0.94 1.02,-1.96 1.02,-3.07 0,-1.12 -0.33,-2.1 -0.98,-2.94 -0.65,-0.84 -1.73,-1.54 -3.22,-2.11 -0.97,-0.38 -3.09,-0.96 -6.38,-1.75 -3.28,-0.79 -5.59,-1.53 -6.91,-2.23 -1.7,-0.9 -2.98,-2.01 -3.82,-3.33 -0.84,-1.33 -1.25,-2.82 -1.25,-4.46 0,-1.81 0.51,-3.5 1.53,-5.07 1.03,-1.57 2.53,-2.76 4.5,-3.57 1.97,-0.82 4.15,-1.22 6.56,-1.22 2.66,0 5,0.42 7.02,1.28 2.03,0.85 3.59,2.11 4.68,3.77 1.09,1.66 1.67,3.54 1.76,5.64 l -4.54,0.34 c -0.25,-2.26 -1.08,-3.97 -2.48,-5.12 -1.41,-1.16 -3.49,-1.74 -6.24,-1.74 -2.87,0 -4.95,0.53 -6.26,1.58 -1.31,1.05 -1.97,2.31 -1.97,3.79 0,1.29 0.47,2.35 1.39,3.18 0.92,0.83 3.3,1.68 7.14,2.55 3.85,0.87 6.5,1.63 7.93,2.28 2.08,0.96 3.62,2.18 4.61,3.65 0.99,1.47 1.49,3.17 1.49,5.09 0,1.91 -0.54,3.7 -1.64,5.38 -1.09,1.69 -2.65,3 -4.69,3.93 -2.05,0.94 -4.35,1.41 -6.9,1.41 -3.24,0 -5.96,-0.47 -8.14,-1.42 -2.19,-0.94 -3.91,-2.36 -5.16,-4.26 -1.24,-1.89 -1.9,-4.04 -1.96,-6.43 z m 52.15,3.15 4.54,0.56 c -0.72,2.65 -2.04,4.71 -3.98,6.18 -1.94,1.46 -4.41,2.19 -7.42,2.19 -3.79,0 -6.8,-1.16 -9.02,-3.5 -2.23,-2.33 -3.34,-5.61 -3.34,-9.83 0,-4.36 1.13,-7.74 3.37,-10.15 2.25,-2.41 5.16,-3.61 8.74,-3.61 3.47,0 6.3,1.17 8.5,3.54 2.2,2.35 3.29,5.67 3.29,9.96 0,0.26 0,0.65 -0.02,1.17 h -19.33 c 0.16,2.85 0.96,5.03 2.41,6.54 1.45,1.51 3.26,2.27 5.42,2.27 1.61,0 2.99,-0.42 4.13,-1.27 1.14,-0.84 2.04,-2.2 2.71,-4.05 z m -14.43,-7.11 h 14.48 c -0.2,-2.18 -0.75,-3.81 -1.66,-4.9 -1.4,-1.7 -3.22,-2.54 -5.45,-2.54 -2.02,0 -3.71,0.67 -5.09,2.02 -1.37,1.36 -2.13,3.16 -2.28,5.42 z m 24.49,25.39 v -35.86 h 4 v 3.37 c 0.94,-1.32 2.01,-2.31 3.2,-2.97 1.19,-0.66 2.63,-0.98 4.32,-0.98 2.21,0 4.17,0.57 5.86,1.7 1.69,1.14 2.97,2.75 3.83,4.83 0.86,2.07 1.3,4.35 1.3,6.82 0,2.65 -0.48,5.04 -1.43,7.17 -0.95,2.12 -2.34,3.75 -4.15,4.88 -1.82,1.13 -3.73,1.69 -5.73,1.69 -1.46,0 -2.78,-0.3 -3.94,-0.92 -1.16,-0.62 -2.12,-1.4 -2.87,-2.35 v 12.62 z m 3.98,-22.75 c 0,3.34 0.67,5.8 2.02,7.4 1.35,1.59 2.99,2.39 4.91,2.39 1.95,0 3.63,-0.83 5.02,-2.48 1.39,-1.65 2.08,-4.21 2.08,-7.67 0,-3.31 -0.68,-5.78 -2.03,-7.43 -1.36,-1.64 -2.99,-2.46 -4.88,-2.46 -1.87,0 -3.52,0.87 -4.96,2.62 -1.44,1.75 -2.16,4.3 -2.16,7.63 z m 40.74,9.62 c -1.63,1.38 -3.19,2.36 -4.7,2.93 -1.5,0.57 -3.12,0.85 -4.84,0.85 -2.85,0 -5.04,-0.69 -6.57,-2.08 -1.53,-1.39 -2.3,-3.17 -2.3,-5.34 0,-1.27 0.29,-2.43 0.87,-3.48 0.58,-1.05 1.34,-1.89 2.27,-2.52 0.94,-0.64 1.99,-1.12 3.16,-1.44 0.87,-0.23 2.17,-0.45 3.91,-0.66 3.55,-0.43 6.16,-0.93 7.84,-1.52 0.01,-0.6 0.02,-0.98 0.02,-1.14 0,-1.79 -0.41,-3.06 -1.24,-3.79 -1.13,-0.99 -2.8,-1.49 -5.01,-1.49 -2.07,0 -3.59,0.37 -4.58,1.09 -0.98,0.72 -1.71,2 -2.18,3.84 l -4.3,-0.58 c 0.39,-1.84 1.03,-3.33 1.93,-4.46 0.89,-1.13 2.19,-2 3.88,-2.61 1.69,-0.61 3.66,-0.91 5.89,-0.91 2.21,0 4.01,0.26 5.39,0.78 1.39,0.52 2.4,1.17 3.05,1.96 0.65,0.79 1.11,1.79 1.37,2.99 0.15,0.75 0.22,2.1 0.22,4.06 v 5.85 c 0,4.09 0.09,6.67 0.28,7.76 0.19,1.08 0.56,2.12 1.11,3.11 h -4.59 c -0.45,-0.91 -0.75,-1.98 -0.88,-3.2 z m -0.36,-9.81 c -1.6,0.65 -3.99,1.2 -7.18,1.66 -1.81,0.26 -3.09,0.55 -3.83,0.88 -0.75,0.32 -1.33,0.8 -1.74,1.42 -0.4,0.63 -0.61,1.33 -0.61,2.09 0,1.17 0.45,2.15 1.33,2.93 0.89,0.78 2.19,1.17 3.9,1.17 1.69,0 3.2,-0.37 4.51,-1.11 1.32,-0.74 2.29,-1.75 2.91,-3.04 0.47,-0.99 0.71,-2.46 0.71,-4.39 z m 11.2,13.01 v -25.93 h 3.96 v 3.93 c 1.01,-1.84 1.94,-3.05 2.79,-3.64 0.86,-0.58 1.8,-0.87 2.82,-0.87 1.48,0 2.99,0.47 4.52,1.41 l -1.51,4.08 c -1.08,-0.64 -2.15,-0.95 -3.23,-0.95 -0.96,0 -1.82,0.29 -2.59,0.86 -0.76,0.58 -1.3,1.38 -1.63,2.41 -0.49,1.56 -0.73,3.27 -0.73,5.12 V 1261 Z m 33.62,-3.2 c -1.63,1.38 -3.19,2.36 -4.7,2.93 -1.5,0.57 -3.12,0.85 -4.85,0.85 -2.84,0 -5.03,-0.69 -6.56,-2.08 -1.53,-1.39 -2.3,-3.17 -2.3,-5.34 0,-1.27 0.29,-2.43 0.87,-3.48 0.58,-1.05 1.33,-1.89 2.27,-2.52 0.94,-0.64 1.99,-1.12 3.16,-1.44 0.86,-0.23 2.17,-0.45 3.91,-0.66 3.55,-0.43 6.16,-0.93 7.83,-1.52 0.02,-0.6 0.03,-0.98 0.03,-1.14 0,-1.79 -0.42,-3.06 -1.25,-3.79 -1.12,-0.99 -2.79,-1.49 -5,-1.49 -2.07,0 -3.59,0.37 -4.58,1.09 -0.98,0.72 -1.71,2 -2.18,3.84 l -4.3,-0.58 c 0.39,-1.84 1.03,-3.33 1.93,-4.46 0.89,-1.13 2.19,-2 3.88,-2.61 1.69,-0.61 3.65,-0.91 5.88,-0.91 2.22,0 4.02,0.26 5.4,0.78 1.38,0.52 2.4,1.17 3.05,1.96 0.65,0.79 1.11,1.79 1.37,2.99 0.15,0.75 0.22,2.1 0.22,4.06 v 5.85 c 0,4.09 0.09,6.67 0.28,7.76 0.19,1.08 0.56,2.12 1.11,3.11 h -4.59 c -0.46,-0.91 -0.75,-1.98 -0.88,-3.2 z m -0.37,-9.81 c -1.59,0.65 -3.98,1.2 -7.17,1.66 -1.81,0.26 -3.09,0.55 -3.84,0.88 -0.75,0.32 -1.32,0.8 -1.73,1.42 -0.41,0.63 -0.61,1.33 -0.61,2.09 0,1.17 0.44,2.15 1.33,2.93 0.89,0.78 2.19,1.17 3.9,1.17 1.69,0 3.19,-0.37 4.51,-1.11 1.32,-0.74 2.29,-1.75 2.91,-3.04 0.47,-0.99 0.7,-2.46 0.7,-4.39 z m 20.85,9.08 0.64,3.88 c -1.24,0.26 -2.34,0.39 -3.32,0.39 -1.6,0 -2.83,-0.25 -3.71,-0.76 -0.88,-0.5 -1.5,-1.16 -1.86,-1.99 -0.36,-0.82 -0.54,-2.55 -0.54,-5.18 v -14.92 h -3.22 v -3.42 h 3.22 v -6.42 l 4.38,-2.64 v 9.06 h 4.41 v 3.42 h -4.41 v 15.16 c 0,1.25 0.07,2.06 0.23,2.42 0.15,0.35 0.4,0.64 0.75,0.85 0.35,0.21 0.85,0.32 1.51,0.32 0.48,0 1.13,-0.06 1.92,-0.17 z m 4.33,-26.81 v -5.05 h 4.39 v 5.05 z m 0,30.74 v -25.93 h 4.39 V 1261 Z m 9.44,-12.96 c 0,-4.81 1.34,-8.36 4.01,-10.67 2.23,-1.93 4.95,-2.88 8.15,-2.88 3.57,0 6.48,1.16 8.74,3.5 2.26,2.33 3.4,5.56 3.4,9.68 0,3.34 -0.5,5.96 -1.51,7.87 -1,1.91 -2.45,3.4 -4.37,4.46 -1.91,1.06 -4,1.58 -6.26,1.58 -3.63,0 -6.56,-1.16 -8.8,-3.49 -2.24,-2.32 -3.36,-5.68 -3.36,-10.05 z m 4.52,0 c 0,3.32 0.73,5.8 2.17,7.45 1.45,1.65 3.28,2.48 5.47,2.48 2.18,0 4,-0.83 5.45,-2.49 1.45,-1.66 2.17,-4.19 2.17,-7.59 0,-3.21 -0.73,-5.64 -2.19,-7.29 -1.45,-1.65 -3.26,-2.48 -5.43,-2.48 -2.19,0 -4.02,0.82 -5.47,2.47 -1.44,1.64 -2.17,4.12 -2.17,7.45 z m 24.93,12.96 v -25.93 h 3.95 v 3.69 c 1.91,-2.85 4.66,-4.27 8.25,-4.27 1.57,0 3,0.28 4.31,0.84 1.31,0.56 2.29,1.29 2.94,2.21 0.66,0.91 1.11,1.99 1.37,3.24 0.16,0.82 0.25,2.24 0.25,4.28 V 1261 h -4.4 v -15.77 c 0,-1.79 -0.17,-3.13 -0.51,-4.02 -0.34,-0.89 -0.95,-1.59 -1.82,-2.12 -0.87,-0.53 -1.89,-0.8 -3.06,-0.8 -1.87,0 -3.49,0.6 -4.85,1.79 -1.36,1.18 -2.04,3.44 -2.04,6.76 V 1261 Z m -154,51.63 -9.86,-25.92 h 4.64 l 5.57,15.52 c 0.6,1.68 1.15,3.42 1.66,5.23 0.39,-1.37 0.93,-3.01 1.63,-4.93 l 5.77,-15.82 h 4.51 l -9.81,25.92 z m 35.55,-8.34 4.54,0.56 c -0.71,2.65 -2.04,4.71 -3.98,6.17 -1.93,1.47 -4.41,2.2 -7.42,2.2 -3.79,0 -6.8,-1.17 -9.02,-3.5 -2.22,-2.34 -3.33,-5.61 -3.33,-9.83 0,-4.36 1.12,-7.75 3.37,-10.16 2.24,-2.4 5.16,-3.61 8.74,-3.61 3.47,0 6.3,1.18 8.49,3.54 2.2,2.36 3.3,5.68 3.3,9.96 0,0.26 -0.01,0.65 -0.03,1.17 h -19.33 c 0.16,2.85 0.97,5.03 2.42,6.55 1.44,1.51 3.25,2.27 5.42,2.27 1.61,0 2.98,-0.43 4.12,-1.27 1.14,-0.85 2.05,-2.2 2.71,-4.05 z m -14.43,-7.11 h 14.48 c -0.19,-2.18 -0.75,-3.82 -1.66,-4.91 -1.4,-1.69 -3.21,-2.54 -5.44,-2.54 -2.02,0 -3.72,0.68 -5.09,2.03 -1.38,1.35 -2.14,3.16 -2.29,5.42 z m 41.41,5.96 4.32,0.56 c -0.47,2.98 -1.68,5.31 -3.62,6.99 -1.95,1.69 -4.34,2.53 -7.17,2.53 -3.55,0 -6.4,-1.16 -8.56,-3.48 -2.15,-2.32 -3.23,-5.64 -3.23,-9.97 0,-2.8 0.46,-5.25 1.39,-7.35 0.93,-2.1 2.34,-3.67 4.24,-4.73 1.89,-1.05 3.96,-1.57 6.18,-1.57 2.82,0 5.12,0.71 6.91,2.14 1.79,1.42 2.94,3.44 3.45,6.06 l -4.28,0.66 c -0.4,-1.74 -1.12,-3.05 -2.16,-3.93 -1.03,-0.88 -2.28,-1.32 -3.75,-1.32 -2.21,0 -4.01,0.8 -5.39,2.38 -1.38,1.59 -2.07,4.1 -2.07,7.54 0,3.48 0.66,6.01 2,7.59 1.33,1.58 3.07,2.37 5.22,2.37 1.73,0 3.17,-0.53 4.32,-1.59 1.16,-1.06 1.89,-2.69 2.2,-4.88 z m 17.68,5.56 0.63,3.89 c -1.24,0.26 -2.34,0.39 -3.32,0.39 -1.59,0 -2.83,-0.26 -3.71,-0.76 -0.88,-0.51 -1.5,-1.17 -1.86,-1.99 -0.35,-0.82 -0.53,-2.55 -0.53,-5.19 v -14.92 h -3.23 v -3.41 h 3.23 v -6.42 l 4.37,-2.64 v 9.06 h 4.42 v 3.41 h -4.42 v 15.17 c 0,1.25 0.07,2.06 0.23,2.41 0.15,0.36 0.41,0.65 0.76,0.86 0.35,0.21 0.85,0.31 1.5,0.31 0.48,0 1.13,-0.05 1.93,-0.17 z m 2.66,-9.03 c 0,-4.8 1.33,-8.36 4,-10.67 2.23,-1.92 4.95,-2.88 8.16,-2.88 3.56,0 6.47,1.17 8.74,3.5 2.26,2.34 3.39,5.57 3.39,9.68 0,3.34 -0.5,5.97 -1.5,7.88 -1,1.91 -2.46,3.4 -4.37,4.45 -1.91,1.06 -4,1.59 -6.26,1.59 -3.63,0 -6.57,-1.16 -8.81,-3.49 -2.23,-2.33 -3.35,-5.68 -3.35,-10.06 z m 4.51,0 c 0,3.32 0.73,5.81 2.18,7.46 1.44,1.65 3.27,2.48 5.47,2.48 2.18,0 3.99,-0.83 5.44,-2.49 1.45,-1.66 2.17,-4.19 2.17,-7.6 0,-3.2 -0.73,-5.63 -2.18,-7.28 -1.46,-1.66 -3.27,-2.48 -5.43,-2.48 -2.2,0 -4.03,0.82 -5.47,2.46 -1.45,1.65 -2.18,4.13 -2.18,7.45 z m 24.88,12.96 v -25.92 h 3.96 v 3.93 c 1,-1.84 1.94,-3.05 2.79,-3.64 0.86,-0.59 1.8,-0.88 2.82,-0.88 1.48,0 2.99,0.47 4.52,1.42 l -1.52,4.07 c -1.07,-0.63 -2.14,-0.95 -3.22,-0.95 -0.96,0 -1.82,0.29 -2.59,0.87 -0.76,0.58 -1.31,1.38 -1.63,2.4 -0.49,1.57 -0.73,3.27 -0.73,5.13 v 13.57 z"
         clip-rule="nonzero"
         id="path3794-7" />
    </clipPath>
  </defs>
  <g
     inkscape:label="Ebene 1"
     inkscape:groupmode="layer"
     id="layer1">
    <g
       transform="matrix(0.26458333,0,0,0.26458333,-4.6933383,-6.1399746)"
       id="g3574"
       style="clip-rule:evenodd;fill-rule:evenodd;stroke-linecap:round;stroke-linejoin:round;stroke-miterlimit:1.5">
      <rect
         x="30.961"
         y="37.220001"
         width="756.38599"
         height="592.50201"
         style="fill:#d6d6d6;stroke:#000000;stroke-width:4.17px"
         id="rect3572" />
    </g>
    <g
       transform="matrix(0.22415182,0.01869427,-0.01855991,0.22254104,45.283675,-69.467274)"
       id="g3578"
       style="clip-rule:evenodd;fill-rule:evenodd;stroke-linecap:round;stroke-linejoin:round;stroke-miterlimit:1.5">
      <path
         d="m 407.578,276.743 48.85,97.699 h -97.7 z"
         style="fill:#f5f5f5;stroke:#000000;stroke-width:4.92px"
         id="path3576" />
    </g>
    <g
       transform="matrix(0.26458333,0,0,0.26458333,-10.152169,0.21210537)"
       id="g3582"
       style="clip-rule:evenodd;fill-rule:evenodd;stroke-linecap:round;stroke-linejoin:round;stroke-miterlimit:1.5">
      <text
         x="216.90601"
         y="667.54199"
         style="font-size:62.5px;font-family:ArialMT, Arial, sans-serif"
         id="text3580">Cohesion rule</text>
    </g>
    <g
       transform="matrix(0.26458333,0,0,0.26458333,-14.231488,-9.0027346)"
       id="g3586"
       style="clip-rule:evenodd;fill-rule:evenodd;stroke-linecap:round;stroke-linejoin:round;stroke-miterlimit:1.5">
      <text
         x="1165.54"
         y="702.21002"
         style="font-size:62.5px;font-family:ArialMT, Arial, sans-serif"
         id="text3584">Alignment rule</text>
    </g>
    <g
       transform="matrix(0.26458333,0,0,0.26458333,-16.109553,-5.6955246)"
       id="g3590"
       style="clip-rule:evenodd;fill-rule:evenodd;stroke-linecap:round;stroke-linejoin:round;stroke-miterlimit:1.5">
      <text
         x="229.51199"
         y="1398.71"
         style="font-size:62.5px;font-family:ArialMT, Arial, sans-serif"
         id="text3588">Separation rule</text>
    </g>
    <g
       transform="matrix(0.26458333,0,0,0.26458333,-16.856472,-6.3243346)"
       id="g3594"
       style="clip-rule:evenodd;fill-rule:evenodd;stroke-linecap:round;stroke-linejoin:round;stroke-miterlimit:1.5">
      <circle
         cx="349.27301"
         cy="358.68399"
         r="236.371"
         style="fill:#ffffff;stroke:#000000;stroke-width:4.17px"
         id="circle3592" />
    </g>
    <g
       transform="matrix(0.60948622,0,0,0.66923972,-96.822973,-222.81157)"
       id="g3598"
       style="clip-rule:evenodd;fill-rule:evenodd;stroke-linecap:round;stroke-linejoin:round;stroke-miterlimit:1.5">
      <path
         d="m 417.22,410.182 4.029,11.294 h 13.04 l -10.549,6.98 4.029,11.295 -10.549,-6.981 -10.55,6.981 4.03,-11.295 -10.549,-6.98 h 13.039 z"
         style="fill:#f5f5f5;stroke:#000000;stroke-width:1.72px"
         id="path3596" />
    </g>
    <g
       transform="matrix(0.20339341,0.09604454,-0.09535451,0.20193185,13.114099,-12.707675)"
       id="g3602"
       style="clip-rule:evenodd;fill-rule:evenodd;stroke-linecap:round;stroke-linejoin:round;stroke-miterlimit:1.5">
      <path
         d="m 407.578,276.743 48.85,97.699 h -97.7 z"
         style="stroke:#000000;stroke-width:4.92px"
         id="path3600" />
    </g>
    <g
       transform="matrix(0.40633649,0.1918761,-0.19096646,0.40441033,203.83841,69.922631)"
       id="g3606"
       style="clip-rule:evenodd;fill-rule:evenodd;stroke-linecap:round;stroke-linejoin:round;stroke-miterlimit:1.5">
      <path
         d="m 407.578,276.743 48.85,97.699 h -97.7 z"
         style="stroke:#000000;stroke-width:2.46px"
         id="path3604" />
    </g>
    <g
       transform="matrix(0.26458333,0,0,0.26458333,-21.863314,1.1730454)"
       id="g3612"
       style="clip-rule:evenodd;fill-rule:evenodd;stroke-linecap:round;stroke-linejoin:round;stroke-miterlimit:1.5">
      <text
         x="489.29001"
         y="307.51999"
         style="font-size:50px;font-family:ArialMT, Arial, sans-serif"
         id="text3608">local swarm</text>
      <text
         x="551.77802"
         y="359.15601"
         style="font-size:50px;font-family:ArialMT, Arial, sans-serif"
         id="text3610">center</text>
    </g>
    <g
       transform="matrix(0.26458333,0,0,0.26458333,18.269902,-30.666924)"
       id="g3616"
       style="clip-rule:evenodd;fill-rule:evenodd;stroke-linecap:round;stroke-linejoin:round;stroke-miterlimit:1.5">
      <circle
         cx="287.81699"
         cy="379.17001"
         r="23.636999"
         style="stroke:#000000;stroke-width:4.17px"
         id="circle3614" />
    </g>
    <g
       transform="matrix(0.26458333,0,0,0.26458333,-4.4829683,181.47441)"
       id="g3620"
       style="clip-rule:evenodd;fill-rule:evenodd;stroke-linecap:round;stroke-linejoin:round;stroke-miterlimit:1.5">
      <rect
         x="30.961"
         y="37.220001"
         width="756.38599"
         height="592.50201"
         style="fill:#d6d6d6;stroke:#000000;stroke-width:4.17px"
         id="rect3618" />
    </g>
    <g
       transform="matrix(0.22415182,0.01869427,-0.01855991,0.22254104,45.494019,118.14692)"
       id="g3624"
       style="clip-rule:evenodd;fill-rule:evenodd;stroke-linecap:round;stroke-linejoin:round;stroke-miterlimit:1.5">
      <path
         d="m 407.578,276.743 48.85,97.699 h -97.7 z"
         style="fill:#f5f5f5;stroke:#000000;stroke-width:4.92px"
         id="path3622" />
    </g>
    <g
       transform="matrix(0.26458333,0,0,0.26458333,-5.5413013,182.00357)"
       id="g3628"
       style="clip-rule:evenodd;fill-rule:evenodd;stroke-linecap:round;stroke-linejoin:round;stroke-miterlimit:1.5">
      <path
         d="m 378.28,287.538 27.242,88.938"
         style="fill:none;stroke:#000000;stroke-width:4.17px"
         id="path3626" />
    </g>
    <g
       transform="matrix(0.26458333,0,0,0.26458333,-16.646102,181.28999)"
       id="g3632"
       style="clip-rule:evenodd;fill-rule:evenodd;stroke-linecap:round;stroke-linejoin:round;stroke-miterlimit:1.5">
      <circle
         cx="349.27301"
         cy="358.68399"
         r="236.371"
         style="fill:#ffffff;stroke:#000000;stroke-width:4.17px"
         id="circle3630" />
    </g>
    <g
       transform="matrix(0.26458333,0,0,0.26458333,-5.7516713,-5.6108046)"
       id="g3640"
       style="clip-rule:evenodd;fill-rule:evenodd;stroke-linecap:round;stroke-linejoin:round;stroke-miterlimit:1.5">
      <g
         transform="translate(32.8775,18.1347)"
         id="g3638">
        <path
           d="m 335.692,987.091 6.598,-34.309 23.489,25.864 z"
           id="path3634" />
        <path
           d="m 374.686,1068.19 -25.64,-91.339"
           style="fill:none;stroke:#000000;stroke-width:4.17px"
           id="path3636" />
      </g>
    </g>
    <g
       transform="matrix(0.60948622,0,0,0.66923972,-96.61263,-35.197384)"
       id="g3644"
       style="clip-rule:evenodd;fill-rule:evenodd;stroke-linecap:round;stroke-linejoin:round;stroke-miterlimit:1.5">
      <path
         d="m 417.22,410.182 4.029,11.294 h 13.04 l -10.549,6.98 4.029,11.295 -10.549,-6.981 -10.55,6.981 4.03,-11.295 -10.549,-6.98 h 13.039 z"
         style="fill:#f5f5f5;stroke:#000000;stroke-width:1.72px"
         id="path3642" />
    </g>
    <g
       transform="matrix(0.60948622,0,0,0.66923972,2.8856017,144.79178)"
       id="g3648"
       style="clip-rule:evenodd;fill-rule:evenodd;stroke-linecap:round;stroke-linejoin:round;stroke-miterlimit:1.5">
      <path
         d="m 417.22,410.182 4.029,11.294 h 13.04 l -10.549,6.98 4.029,11.295 -10.549,-6.981 -10.55,6.981 4.03,-11.295 -10.549,-6.98 h 13.039 z"
         style="fill:#f5f5f5;stroke:#000000;stroke-width:1.72px"
         id="path3646" />
    </g>
    <g
       transform="matrix(0.26458333,0,0,0.26458333,-95.673888,41.736569)"
       id="g3654"
       style="clip-rule:evenodd;fill-rule:evenodd;stroke-linecap:round;stroke-linejoin:round;stroke-miterlimit:1.5">
      <text
         x="472.931"
         y="1490.5601"
         style="font-size:50px;font-family:ArialMT, Arial, sans-serif"
         id="text3652">Other <tspan
   x="609.112 642.46198"
   y="1490.5601 1490.5601"
   id="tspan3650">Ag</tspan>ents</text>
    </g>
    <g
       transform="matrix(0.20339341,0.09604454,-0.09535451,0.20193185,13.324443,174.90665)"
       id="g3658"
       style="clip-rule:evenodd;fill-rule:evenodd;stroke-linecap:round;stroke-linejoin:round;stroke-miterlimit:1.5">
      <path
         d="m 407.578,276.743 48.85,97.699 h -97.7 z"
         style="stroke:#000000;stroke-width:4.92px"
         id="path3656" />
    </g>
    <g
       transform="matrix(0.22492785,-9.702059e-4,9.6323413e-4,0.22331151,-77.354932,327.59875)"
       id="g3662"
       style="clip-rule:evenodd;fill-rule:evenodd;stroke-linecap:round;stroke-linejoin:round;stroke-miterlimit:1.5">
      <path
         d="m 407.578,276.743 48.85,97.699 h -97.7 z"
         style="stroke:#000000;stroke-width:4.92px"
         id="path3660" />
    </g>
    <g
       transform="matrix(0.21812911,0.05489231,-0.05449808,0.21656172,31.666365,185.22011)"
       id="g3666"
       style="clip-rule:evenodd;fill-rule:evenodd;stroke-linecap:round;stroke-linejoin:round;stroke-miterlimit:1.5">
      <path
         d="m 407.578,276.743 48.85,97.699 h -97.7 z"
         style="fill:#f5f5f5;stroke:#000000;stroke-width:4.92px"
         id="path3664" />
    </g>
    <g
       transform="matrix(0.26458333,0,0,0.26458333,18.480272,156.94753)"
       id="g3670"
       style="clip-rule:evenodd;fill-rule:evenodd;stroke-linecap:round;stroke-linejoin:round;stroke-miterlimit:1.5">
      <circle
         cx="287.81699"
         cy="379.17001"
         r="23.636999"
         style="stroke:#000000;stroke-width:4.17px"
         id="circle3668" />
    </g>
    <g
       transform="matrix(0.25661117,0,0,0.25661117,-3.6762003,194.16911)"
       id="g3674"
       style="clip-rule:evenodd;fill-rule:evenodd;stroke-linecap:round;stroke-linejoin:round;stroke-miterlimit:1.5">
      <path
         d="m 376.062,478.446 42.546,42.546 -42.546,42.547 -42.547,-42.547 z"
         style="fill:#f5f5f5;stroke:#000000;stroke-width:4.3px"
         id="path3672" />
    </g>
    <g
       transform="matrix(0.25661117,0,0,0.25661117,160.71715,263.53757)"
       id="g3678"
       style="clip-rule:evenodd;fill-rule:evenodd;stroke-linecap:round;stroke-linejoin:round;stroke-miterlimit:1.5">
      <path
         d="m 376.062,478.446 42.546,42.546 -42.546,42.547 -42.547,-42.547 z"
         style="fill:#f5f5f5;stroke:#000000;stroke-width:4.3px"
         id="path3676" />
    </g>
    <g
       transform="matrix(0.25661117,0,0,0.25661117,46.015512,163.98095)"
       id="g3682"
       style="clip-rule:evenodd;fill-rule:evenodd;stroke-linecap:round;stroke-linejoin:round;stroke-miterlimit:1.5">
      <path
         d="m 376.062,478.446 42.546,42.546 -42.546,42.547 -42.547,-42.547 z"
         style="fill:#f5f5f5;stroke:#000000;stroke-width:4.3px"
         id="path3680" />
    </g>
    <g
       transform="matrix(0.25661117,0,0,0.25661117,-3.8865443,6.5547658)"
       id="g3686"
       style="clip-rule:evenodd;fill-rule:evenodd;stroke-linecap:round;stroke-linejoin:round;stroke-miterlimit:1.5">
      <path
         d="m 376.062,478.446 42.546,42.546 -42.546,42.547 -42.547,-42.547 z"
         style="fill:#f5f5f5;stroke:#000000;stroke-width:4.3px"
         id="path3684" />
    </g>
    <g
       transform="matrix(0.25661117,0,0,0.25661117,45.805169,-23.633374)"
       id="g3690"
       style="clip-rule:evenodd;fill-rule:evenodd;stroke-linecap:round;stroke-linejoin:round;stroke-miterlimit:1.5">
      <path
         d="m 376.062,478.446 42.546,42.546 -42.546,42.547 -42.547,-42.547 z"
         style="fill:#f5f5f5;stroke:#000000;stroke-width:4.3px"
         id="path3688" />
    </g>
    <g
       transform="matrix(0.26458333,0,0,0.26458333,239.03726,-6.0315146)"
       id="g3694"
       style="clip-rule:evenodd;fill-rule:evenodd;stroke-linecap:round;stroke-linejoin:round;stroke-miterlimit:1.5">
      <rect
         x="30.961"
         y="37.220001"
         width="756.38599"
         height="592.50201"
         style="fill:#d6d6d6;stroke:#000000;stroke-width:4.17px"
         id="rect3692" />
    </g>
    <g
       transform="matrix(0.22415182,0.01869427,-0.01855991,0.22254104,289.01467,-68.300724)"
       id="g3698"
       style="clip-rule:evenodd;fill-rule:evenodd;stroke-linecap:round;stroke-linejoin:round;stroke-miterlimit:1.5">
      <path
         d="m 407.578,276.743 48.85,97.699 h -97.7 z"
         style="fill:#f5f5f5;stroke:#000000;stroke-width:4.92px"
         id="path3696" />
    </g>
    <g
       transform="matrix(0.26458333,0,0,0.26458333,237.97892,-5.5023546)"
       id="g3702"
       style="clip-rule:evenodd;fill-rule:evenodd;stroke-linecap:round;stroke-linejoin:round;stroke-miterlimit:1.5">
      <path
         d="m 378.28,287.538 27.242,88.938"
         style="fill:none;stroke:#000000;stroke-width:4.17px"
         id="path3700" />
    </g>
    <g
       transform="matrix(0.26458333,0,0,0.26458333,226.8741,-6.2158746)"
       id="g3706"
       style="clip-rule:evenodd;fill-rule:evenodd;stroke-linecap:round;stroke-linejoin:round;stroke-miterlimit:1.5">
      <circle
         cx="349.27301"
         cy="358.68399"
         r="236.371"
         style="fill:#ffffff;stroke:#000000;stroke-width:4.17px"
         id="circle3704" />
    </g>
    <g
       transform="matrix(0.60948622,0,0,0.66923972,146.90775,-222.70335)"
       id="g3710"
       style="clip-rule:evenodd;fill-rule:evenodd;stroke-linecap:round;stroke-linejoin:round;stroke-miterlimit:1.5">
      <path
         d="m 417.22,410.182 4.029,11.294 h 13.04 l -10.549,6.98 4.029,11.295 -10.549,-6.981 -10.55,6.981 4.03,-11.295 -10.549,-6.98 h 13.039 z"
         style="fill:#f5f5f5;stroke:#000000;stroke-width:1.72px"
         id="path3708" />
    </g>
    <g
       transform="matrix(0.21962507,0.04856215,-0.04821317,0.21804683,234.88039,1.5066354)"
       id="g3714"
       style="clip-rule:evenodd;fill-rule:evenodd;stroke-linecap:round;stroke-linejoin:round;stroke-miterlimit:1.5">
      <path
         d="m 407.578,276.743 48.85,97.699 h -97.7 z"
         style="stroke:#000000;stroke-width:4.92px"
         id="path3712" />
    </g>
    <g
       transform="matrix(0.19807052,0.10659083,-0.10582487,0.19664706,243.93734,-46.043444)"
       id="g3718"
       style="clip-rule:evenodd;fill-rule:evenodd;stroke-linecap:round;stroke-linejoin:round;stroke-miterlimit:1.5">
      <path
         d="m 407.578,276.743 48.85,97.699 h -97.7 z"
         style="fill:#f5f5f5;stroke:#000000;stroke-width:4.92px"
         id="path3716" />
    </g>
    <g
       transform="matrix(0.18817352,0.12322439,-0.12233883,0.18682123,332.71854,-55.559454)"
       id="g3722"
       style="clip-rule:evenodd;fill-rule:evenodd;stroke-linecap:round;stroke-linejoin:round;stroke-miterlimit:1.5">
      <path
         d="m 407.578,276.743 48.85,97.699 h -97.7 z"
         style="fill:#f5f5f5;stroke:#000000;stroke-width:4.92px"
         id="path3720" />
    </g>
    <g
       transform="matrix(0.20876842,0.08372131,-0.08311965,0.20726823,282.55354,-58.496854)"
       id="g3726"
       style="clip-rule:evenodd;fill-rule:evenodd;stroke-linecap:round;stroke-linejoin:round;stroke-miterlimit:1.5">
      <path
         d="m 407.578,276.743 48.85,97.699 h -97.7 z"
         style="fill:#f5f5f5;stroke:#000000;stroke-width:4.92px"
         id="path3724" />
    </g>
    <g
       transform="matrix(0.1811819,0.13329126,-0.13233347,0.17987989,315.58942,-22.296164)"
       id="g3730"
       style="clip-rule:evenodd;fill-rule:evenodd;stroke-linecap:round;stroke-linejoin:round;stroke-miterlimit:1.5">
      <path
         d="m 407.578,276.743 48.85,97.699 h -97.7 z"
         style="fill:#f5f5f5;stroke:#000000;stroke-width:4.92px"
         id="path3728" />
    </g>
    <g
       transform="matrix(0.25661117,0,0,0.25661117,239.84423,6.6632458)"
       id="g3734"
       style="clip-rule:evenodd;fill-rule:evenodd;stroke-linecap:round;stroke-linejoin:round;stroke-miterlimit:1.5">
      <path
         d="m 376.062,478.446 42.546,42.546 -42.546,42.547 -42.547,-42.547 z"
         style="fill:#f5f5f5;stroke:#000000;stroke-width:4.3px"
         id="path3732" />
    </g>
    <g
       transform="matrix(0.25661117,0,0,0.25661117,289.53589,-23.524924)"
       id="g3738"
       style="clip-rule:evenodd;fill-rule:evenodd;stroke-linecap:round;stroke-linejoin:round;stroke-miterlimit:1.5">
      <path
         d="m 376.062,478.446 42.546,42.546 -42.546,42.547 -42.547,-42.547 z"
         style="fill:#f5f5f5;stroke:#000000;stroke-width:4.3px"
         id="path3736" />
    </g>
    <g
       transform="matrix(0.26458333,0,0,0.26458333,-42.106347,-1.9543046)"
       id="g3742"
       style="clip-rule:evenodd;fill-rule:evenodd;stroke-linecap:round;stroke-linejoin:round;stroke-miterlimit:1.5">
      <text
         x="1126.9301"
         y="1385.64"
         style="font-size:62.5px;font-family:ArialMT, Arial, sans-serif"
         id="text3740">Summation of the rules</text>
    </g>
    <g
       transform="matrix(0.26458333,0,0,0.26458333,4.5670885,-14.077475)"
       id="g3750"
       style="clip-rule:evenodd;fill-rule:evenodd;stroke-linecap:round;stroke-linejoin:round;stroke-miterlimit:1.5">
      <g
         transform="translate(-6.12254,50.1347)"
         id="g3748">
        <path
           d="m 1311.87,922.68 39.27,-14.686 -11.81,40.228 z"
           id="path3744" />
        <path
           d="m 1222.94,1045.81 c 58.69,-63.095 90.51,-97.303 107.77,-115.85"
           style="fill:none;stroke:#000000;stroke-width:6.25px"
           id="path3746" />
      </g>
    </g>
    <g
       transform="matrix(0.26458333,0,0,0.26458333,4.5670885,-14.077475)"
       id="g3758"
       style="clip-rule:evenodd;fill-rule:evenodd;stroke-linecap:round;stroke-linejoin:round;stroke-miterlimit:1.5">
      <g
         transform="translate(-6.12254,50.1347)"
         id="g3756">
        <path
           d="m 1042.72,897.84 3.95,-34.715 25.4,23.985 z"
           id="path3752" />
        <path
           d="m 1101.15,1012.16 c -25.05,-68.544 -38.59,-105.562 -45.9,-125.555"
           style="fill:none;stroke:#000000;stroke-width:4.17px;stroke-dasharray:4.17, 4.17"
           id="path3754" />
      </g>
    </g>
    <g
       transform="matrix(0.26458333,0,0,0.26458333,4.0379217,-14.077475)"
       id="g3774"
       style="clip-rule:evenodd;fill-rule:evenodd;stroke-linecap:round;stroke-linejoin:round;stroke-miterlimit:1.5">
      <g
         transform="translate(-4.12254,50.1347)"
         id="g3772">
        <path
           d="m 1387.63,1208.09 22.4,26.81 -34.89,1.84 z"
           id="path3768" />
        <path
           d="m 1222.54,1153.17 c 94.45,41.17 141.32,61.6 164.58,71.74"
           style="fill:none;stroke:#000000;stroke-width:4.17px;stroke-dasharray:4.17, 4.17"
           id="path3770" />
      </g>
    </g>
    <g
       transform="matrix(0.26458333,0,0,0.26458333,-27.375141,-0.94691463)"
       id="g3780"
       style="clip-rule:evenodd;fill-rule:evenodd;stroke-linecap:round;stroke-linejoin:round;stroke-miterlimit:1.5">
      <text
         x="601.09399"
         y="512.638"
         style="font-size:50px;font-family:ArialMT, Arial, sans-serif;fill:#ffffff"
         id="text3776">local</text>
      <text
         x="535.76202"
         y="564.27399"
         style="font-size:50px;font-family:ArialMT, Arial, sans-serif;fill:#ffffff"
         id="text3778">perception</text>
    </g>
    <g
       transform="matrix(0.26458333,0,0,0.26458333,24.918643,-8.9895846)"
       id="g3786"
       style="clip-rule:evenodd;fill-rule:evenodd;stroke-linecap:round;stroke-linejoin:round;stroke-miterlimit:1.5">
      <text
         x="849.25098"
         y="821.91803"
         style="font-size:50px;font-family:ArialMT, Arial, sans-serif"
         id="text3782">Alignment</text>
      <text
         x="892.34198"
         y="873.55298"
         style="font-size:50px;font-family:ArialMT, Arial, sans-serif"
         id="text3784">vector</text>
    </g>
    <g
       transform="matrix(0.26458333,0,0,0.26458333,23.22269,-18.741384)"
       id="g3792"
       style="clip-rule:evenodd;fill-rule:evenodd;stroke-linecap:round;stroke-linejoin:round;stroke-miterlimit:1.5">
      <text
         x="1383.61"
         y="1161.64"
         style="font-size:50px;font-family:ArialMT, Arial, sans-serif"
         id="text3788">Cohesion</text>
      <text
         x="1421.16"
         y="1213.28"
         style="font-size:50px;font-family:ArialMT, Arial, sans-serif"
         id="text3790">vector</text>
    </g>
    <g
       transform="matrix(0.26458333,0,0,0.26458333,15.590864,-11.533525)"
       id="g3807"
       style="clip-rule:evenodd;fill-rule:evenodd;stroke-linecap:round;stroke-linejoin:round;stroke-miterlimit:1.5">
      <clipPath
         id="clipPath7890">
        <path
           d="m 1367.36,1249.5 4.47,-0.39 c 0.21,1.79 0.7,3.26 1.47,4.41 0.78,1.14 1.98,2.07 3.6,2.78 1.63,0.71 3.46,1.06 5.5,1.06 1.8,0 3.4,-0.27 4.78,-0.8 1.39,-0.54 2.42,-1.28 3.09,-2.21 0.68,-0.94 1.02,-1.96 1.02,-3.07 0,-1.12 -0.33,-2.1 -0.98,-2.94 -0.65,-0.84 -1.73,-1.54 -3.22,-2.11 -0.97,-0.38 -3.09,-0.96 -6.38,-1.75 -3.28,-0.79 -5.59,-1.53 -6.91,-2.23 -1.7,-0.9 -2.98,-2.01 -3.82,-3.33 -0.84,-1.33 -1.25,-2.82 -1.25,-4.46 0,-1.81 0.51,-3.5 1.53,-5.07 1.03,-1.57 2.53,-2.76 4.5,-3.57 1.97,-0.82 4.15,-1.22 6.56,-1.22 2.66,0 5,0.42 7.02,1.28 2.03,0.85 3.59,2.11 4.68,3.77 1.09,1.66 1.67,3.54 1.76,5.64 l -4.54,0.34 c -0.25,-2.26 -1.08,-3.97 -2.48,-5.12 -1.41,-1.16 -3.49,-1.74 -6.24,-1.74 -2.87,0 -4.95,0.53 -6.26,1.58 -1.31,1.05 -1.97,2.31 -1.97,3.79 0,1.29 0.47,2.35 1.39,3.18 0.92,0.83 3.3,1.68 7.14,2.55 3.85,0.87 6.5,1.63 7.93,2.28 2.08,0.96 3.62,2.18 4.61,3.65 0.99,1.47 1.49,3.17 1.49,5.09 0,1.91 -0.54,3.7 -1.64,5.38 -1.09,1.69 -2.65,3 -4.69,3.93 -2.05,0.94 -4.35,1.41 -6.9,1.41 -3.24,0 -5.96,-0.47 -8.14,-1.42 -2.19,-0.94 -3.91,-2.36 -5.16,-4.26 -1.24,-1.89 -1.9,-4.04 -1.96,-6.43 z m 52.15,3.15 4.54,0.56 c -0.72,2.65 -2.04,4.71 -3.98,6.18 -1.94,1.46 -4.41,2.19 -7.42,2.19 -3.79,0 -6.8,-1.16 -9.02,-3.5 -2.23,-2.33 -3.34,-5.61 -3.34,-9.83 0,-4.36 1.13,-7.74 3.37,-10.15 2.25,-2.41 5.16,-3.61 8.74,-3.61 3.47,0 6.3,1.17 8.5,3.54 2.2,2.35 3.29,5.67 3.29,9.96 0,0.26 0,0.65 -0.02,1.17 h -19.33 c 0.16,2.85 0.96,5.03 2.41,6.54 1.45,1.51 3.26,2.27 5.42,2.27 1.61,0 2.99,-0.42 4.13,-1.27 1.14,-0.84 2.04,-2.2 2.71,-4.05 z m -14.43,-7.11 h 14.48 c -0.2,-2.18 -0.75,-3.81 -1.66,-4.9 -1.4,-1.7 -3.22,-2.54 -5.45,-2.54 -2.02,0 -3.71,0.67 -5.09,2.02 -1.37,1.36 -2.13,3.16 -2.28,5.42 z m 24.49,25.39 v -35.86 h 4 v 3.37 c 0.94,-1.32 2.01,-2.31 3.2,-2.97 1.19,-0.66 2.63,-0.98 4.32,-0.98 2.21,0 4.17,0.57 5.86,1.7 1.69,1.14 2.97,2.75 3.83,4.83 0.86,2.07 1.3,4.35 1.3,6.82 0,2.65 -0.48,5.04 -1.43,7.17 -0.95,2.12 -2.34,3.75 -4.15,4.88 -1.82,1.13 -3.73,1.69 -5.73,1.69 -1.46,0 -2.78,-0.3 -3.94,-0.92 -1.16,-0.62 -2.12,-1.4 -2.87,-2.35 v 12.62 z m 3.98,-22.75 c 0,3.34 0.67,5.8 2.02,7.4 1.35,1.59 2.99,2.39 4.91,2.39 1.95,0 3.63,-0.83 5.02,-2.48 1.39,-1.65 2.08,-4.21 2.08,-7.67 0,-3.31 -0.68,-5.78 -2.03,-7.43 -1.36,-1.64 -2.99,-2.46 -4.88,-2.46 -1.87,0 -3.52,0.87 -4.96,2.62 -1.44,1.75 -2.16,4.3 -2.16,7.63 z m 40.74,9.62 c -1.63,1.38 -3.19,2.36 -4.7,2.93 -1.5,0.57 -3.12,0.85 -4.84,0.85 -2.85,0 -5.04,-0.69 -6.57,-2.08 -1.53,-1.39 -2.3,-3.17 -2.3,-5.34 0,-1.27 0.29,-2.43 0.87,-3.48 0.58,-1.05 1.34,-1.89 2.27,-2.52 0.94,-0.64 1.99,-1.12 3.16,-1.44 0.87,-0.23 2.17,-0.45 3.91,-0.66 3.55,-0.43 6.16,-0.93 7.84,-1.52 0.01,-0.6 0.02,-0.98 0.02,-1.14 0,-1.79 -0.41,-3.06 -1.24,-3.79 -1.13,-0.99 -2.8,-1.49 -5.01,-1.49 -2.07,0 -3.59,0.37 -4.58,1.09 -0.98,0.72 -1.71,2 -2.18,3.84 l -4.3,-0.58 c 0.39,-1.84 1.03,-3.33 1.93,-4.46 0.89,-1.13 2.19,-2 3.88,-2.61 1.69,-0.61 3.66,-0.91 5.89,-0.91 2.21,0 4.01,0.26 5.39,0.78 1.39,0.52 2.4,1.17 3.05,1.96 0.65,0.79 1.11,1.79 1.37,2.99 0.15,0.75 0.22,2.1 0.22,4.06 v 5.85 c 0,4.09 0.09,6.67 0.28,7.76 0.19,1.08 0.56,2.12 1.11,3.11 h -4.59 c -0.45,-0.91 -0.75,-1.98 -0.88,-3.2 z m -0.36,-9.81 c -1.6,0.65 -3.99,1.2 -7.18,1.66 -1.81,0.26 -3.09,0.55 -3.83,0.88 -0.75,0.32 -1.33,0.8 -1.74,1.42 -0.4,0.63 -0.61,1.33 -0.61,2.09 0,1.17 0.45,2.15 1.33,2.93 0.89,0.78 2.19,1.17 3.9,1.17 1.69,0 3.2,-0.37 4.51,-1.11 1.32,-0.74 2.29,-1.75 2.91,-3.04 0.47,-0.99 0.71,-2.46 0.71,-4.39 z m 11.2,13.01 v -25.93 h 3.96 v 3.93 c 1.01,-1.84 1.94,-3.05 2.79,-3.64 0.86,-0.58 1.8,-0.87 2.82,-0.87 1.48,0 2.99,0.47 4.52,1.41 l -1.51,4.08 c -1.08,-0.64 -2.15,-0.95 -3.23,-0.95 -0.96,0 -1.82,0.29 -2.59,0.86 -0.76,0.58 -1.3,1.38 -1.63,2.41 -0.49,1.56 -0.73,3.27 -0.73,5.12 V 1261 Z m 33.62,-3.2 c -1.63,1.38 -3.19,2.36 -4.7,2.93 -1.5,0.57 -3.12,0.85 -4.85,0.85 -2.84,0 -5.03,-0.69 -6.56,-2.08 -1.53,-1.39 -2.3,-3.17 -2.3,-5.34 0,-1.27 0.29,-2.43 0.87,-3.48 0.58,-1.05 1.33,-1.89 2.27,-2.52 0.94,-0.64 1.99,-1.12 3.16,-1.44 0.86,-0.23 2.17,-0.45 3.91,-0.66 3.55,-0.43 6.16,-0.93 7.83,-1.52 0.02,-0.6 0.03,-0.98 0.03,-1.14 0,-1.79 -0.42,-3.06 -1.25,-3.79 -1.12,-0.99 -2.79,-1.49 -5,-1.49 -2.07,0 -3.59,0.37 -4.58,1.09 -0.98,0.72 -1.71,2 -2.18,3.84 l -4.3,-0.58 c 0.39,-1.84 1.03,-3.33 1.93,-4.46 0.89,-1.13 2.19,-2 3.88,-2.61 1.69,-0.61 3.65,-0.91 5.88,-0.91 2.22,0 4.02,0.26 5.4,0.78 1.38,0.52 2.4,1.17 3.05,1.96 0.65,0.79 1.11,1.79 1.37,2.99 0.15,0.75 0.22,2.1 0.22,4.06 v 5.85 c 0,4.09 0.09,6.67 0.28,7.76 0.19,1.08 0.56,2.12 1.11,3.11 h -4.59 c -0.46,-0.91 -0.75,-1.98 -0.88,-3.2 z m -0.37,-9.81 c -1.59,0.65 -3.98,1.2 -7.17,1.66 -1.81,0.26 -3.09,0.55 -3.84,0.88 -0.75,0.32 -1.32,0.8 -1.73,1.42 -0.41,0.63 -0.61,1.33 -0.61,2.09 0,1.17 0.44,2.15 1.33,2.93 0.89,0.78 2.19,1.17 3.9,1.17 1.69,0 3.19,-0.37 4.51,-1.11 1.32,-0.74 2.29,-1.75 2.91,-3.04 0.47,-0.99 0.7,-2.46 0.7,-4.39 z m 20.85,9.08 0.64,3.88 c -1.24,0.26 -2.34,0.39 -3.32,0.39 -1.6,0 -2.83,-0.25 -3.71,-0.76 -0.88,-0.5 -1.5,-1.16 -1.86,-1.99 -0.36,-0.82 -0.54,-2.55 -0.54,-5.18 v -14.92 h -3.22 v -3.42 h 3.22 v -6.42 l 4.38,-2.64 v 9.06 h 4.41 v 3.42 h -4.41 v 15.16 c 0,1.25 0.07,2.06 0.23,2.42 0.15,0.35 0.4,0.64 0.75,0.85 0.35,0.21 0.85,0.32 1.51,0.32 0.48,0 1.13,-0.06 1.92,-0.17 z m 4.33,-26.81 v -5.05 h 4.39 v 5.05 z m 0,30.74 v -25.93 h 4.39 V 1261 Z m 9.44,-12.96 c 0,-4.81 1.34,-8.36 4.01,-10.67 2.23,-1.93 4.95,-2.88 8.15,-2.88 3.57,0 6.48,1.16 8.74,3.5 2.26,2.33 3.4,5.56 3.4,9.68 0,3.34 -0.5,5.96 -1.51,7.87 -1,1.91 -2.45,3.4 -4.37,4.46 -1.91,1.06 -4,1.58 -6.26,1.58 -3.63,0 -6.56,-1.16 -8.8,-3.49 -2.24,-2.32 -3.36,-5.68 -3.36,-10.05 z m 4.52,0 c 0,3.32 0.73,5.8 2.17,7.45 1.45,1.65 3.28,2.48 5.47,2.48 2.18,0 4,-0.83 5.45,-2.49 1.45,-1.66 2.17,-4.19 2.17,-7.59 0,-3.21 -0.73,-5.64 -2.19,-7.29 -1.45,-1.65 -3.26,-2.48 -5.43,-2.48 -2.19,0 -4.02,0.82 -5.47,2.47 -1.44,1.64 -2.17,4.12 -2.17,7.45 z m 24.93,12.96 v -25.93 h 3.95 v 3.69 c 1.91,-2.85 4.66,-4.27 8.25,-4.27 1.57,0 3,0.28 4.31,0.84 1.31,0.56 2.29,1.29 2.94,2.21 0.66,0.91 1.11,1.99 1.37,3.24 0.16,0.82 0.25,2.24 0.25,4.28 V 1261 h -4.4 v -15.77 c 0,-1.79 -0.17,-3.13 -0.51,-4.02 -0.34,-0.89 -0.95,-1.59 -1.82,-2.12 -0.87,-0.53 -1.89,-0.8 -3.06,-0.8 -1.87,0 -3.49,0.6 -4.85,1.79 -1.36,1.18 -2.04,3.44 -2.04,6.76 V 1261 Z m -154,51.63 -9.86,-25.92 h 4.64 l 5.57,15.52 c 0.6,1.68 1.15,3.42 1.66,5.23 0.39,-1.37 0.93,-3.01 1.63,-4.93 l 5.77,-15.82 h 4.51 l -9.81,25.92 z m 35.55,-8.34 4.54,0.56 c -0.71,2.65 -2.04,4.71 -3.98,6.17 -1.93,1.47 -4.41,2.2 -7.42,2.2 -3.79,0 -6.8,-1.17 -9.02,-3.5 -2.22,-2.34 -3.33,-5.61 -3.33,-9.83 0,-4.36 1.12,-7.75 3.37,-10.16 2.24,-2.4 5.16,-3.61 8.74,-3.61 3.47,0 6.3,1.18 8.49,3.54 2.2,2.36 3.3,5.68 3.3,9.96 0,0.26 -0.01,0.65 -0.03,1.17 h -19.33 c 0.16,2.85 0.97,5.03 2.42,6.55 1.44,1.51 3.25,2.27 5.42,2.27 1.61,0 2.98,-0.43 4.12,-1.27 1.14,-0.85 2.05,-2.2 2.71,-4.05 z m -14.43,-7.11 h 14.48 c -0.19,-2.18 -0.75,-3.82 -1.66,-4.91 -1.4,-1.69 -3.21,-2.54 -5.44,-2.54 -2.02,0 -3.72,0.68 -5.09,2.03 -1.38,1.35 -2.14,3.16 -2.29,5.42 z m 41.41,5.96 4.32,0.56 c -0.47,2.98 -1.68,5.31 -3.62,6.99 -1.95,1.69 -4.34,2.53 -7.17,2.53 -3.55,0 -6.4,-1.16 -8.56,-3.48 -2.15,-2.32 -3.23,-5.64 -3.23,-9.97 0,-2.8 0.46,-5.25 1.39,-7.35 0.93,-2.1 2.34,-3.67 4.24,-4.73 1.89,-1.05 3.96,-1.57 6.18,-1.57 2.82,0 5.12,0.71 6.91,2.14 1.79,1.42 2.94,3.44 3.45,6.06 l -4.28,0.66 c -0.4,-1.74 -1.12,-3.05 -2.16,-3.93 -1.03,-0.88 -2.28,-1.32 -3.75,-1.32 -2.21,0 -4.01,0.8 -5.39,2.38 -1.38,1.59 -2.07,4.1 -2.07,7.54 0,3.48 0.66,6.01 2,7.59 1.33,1.58 3.07,2.37 5.22,2.37 1.73,0 3.17,-0.53 4.32,-1.59 1.16,-1.06 1.89,-2.69 2.2,-4.88 z m 17.68,5.56 0.63,3.89 c -1.24,0.26 -2.34,0.39 -3.32,0.39 -1.59,0 -2.83,-0.26 -3.71,-0.76 -0.88,-0.51 -1.5,-1.17 -1.86,-1.99 -0.35,-0.82 -0.53,-2.55 -0.53,-5.19 v -14.92 h -3.23 v -3.41 h 3.23 v -6.42 l 4.37,-2.64 v 9.06 h 4.42 v 3.41 h -4.42 v 15.17 c 0,1.25 0.07,2.06 0.23,2.41 0.15,0.36 0.41,0.65 0.76,0.86 0.35,0.21 0.85,0.31 1.5,0.31 0.48,0 1.13,-0.05 1.93,-0.17 z m 2.66,-9.03 c 0,-4.8 1.33,-8.36 4,-10.67 2.23,-1.92 4.95,-2.88 8.16,-2.88 3.56,0 6.47,1.17 8.74,3.5 2.26,2.34 3.39,5.57 3.39,9.68 0,3.34 -0.5,5.97 -1.5,7.88 -1,1.91 -2.46,3.4 -4.37,4.45 -1.91,1.06 -4,1.59 -6.26,1.59 -3.63,0 -6.57,-1.16 -8.81,-3.49 -2.23,-2.33 -3.35,-5.68 -3.35,-10.06 z m 4.51,0 c 0,3.32 0.73,5.81 2.18,7.46 1.44,1.65 3.27,2.48 5.47,2.48 2.18,0 3.99,-0.83 5.44,-2.49 1.45,-1.66 2.17,-4.19 2.17,-7.6 0,-3.2 -0.73,-5.63 -2.18,-7.28 -1.46,-1.66 -3.27,-2.48 -5.43,-2.48 -2.2,0 -4.03,0.82 -5.47,2.46 -1.45,1.65 -2.18,4.13 -2.18,7.45 z m 24.88,12.96 v -25.92 h 3.96 v 3.93 c 1,-1.84 1.94,-3.05 2.79,-3.64 0.86,-0.59 1.8,-0.88 2.82,-0.88 1.48,0 2.99,0.47 4.52,1.42 l -1.52,4.07 c -1.07,-0.63 -2.14,-0.95 -3.22,-0.95 -0.96,0 -1.82,0.29 -2.59,0.87 -0.76,0.58 -1.31,1.38 -1.63,2.4 -0.49,1.57 -0.73,3.27 -0.73,5.13 v 13.57 z"
           clip-rule="nonzero"
           id="path7888" />
      </clipPath>
      <g
         clip-path="url(#_clip1-0)"
         id="g3805">
        <text
           x="1365.11"
           y="1261"
           style="font-size:50px;font-family:ArialMT, Arial, sans-serif"
           id="text3797">Separation</text>
        <text
           x="1417.96"
           y="1312.63"
           style="font-size:50px;font-family:ArialMT, Arial, sans-serif"
           id="text3799">vector</text>
        <g
           transform="translate(-41.6646,-9.61491)"
           id="g3803">
          <path
             d="m 378.28,287.538 27.242,88.938"
             style="fill:none;stroke:#000000;stroke-width:4.17px"
             id="path3801" />
        </g>
      </g>
    </g>
    <g
       transform="matrix(0.26458333,0,0,0.26458333,16.014832,-12.381515)"
       id="g3815"
       style="clip-rule:evenodd;fill-rule:evenodd;stroke-linecap:round;stroke-linejoin:round;stroke-miterlimit:1.5">
      <text
         x="1261.51"
         y="871.59497"
         style="font-size:50px;font-family:ArialMT, Arial, sans-serif"
         id="text3809">Summed up</text>
      <text
         x="1247.5699"
         y="923.22998"
         style="font-size:50px;font-family:ArialMT, Arial, sans-serif"
         id="text3811">and weighted</text>
      <text
         x="1328.22"
         y="974.86603"
         style="font-size:50px;font-family:ArialMT, Arial, sans-serif"
         id="text3813">vector</text>
    </g>
    <g
       transform="matrix(0.26458333,0,0,0.26458333,-5.7516713,-5.6108046)"
       id="g3819"
       style="clip-rule:evenodd;fill-rule:evenodd;stroke-linecap:round;stroke-linejoin:round;stroke-miterlimit:1.5">
      <path
         d="M 378.719,285.085 196.035,264.253"
         style="fill:none;stroke:#000000;stroke-width:4.17px"
         id="path3817" />
    </g>
    <g
       transform="matrix(0.26458333,0,0,0.26458333,-5.7516713,-5.6108046)"
       id="g3823"
       style="clip-rule:evenodd;fill-rule:evenodd;stroke-linecap:round;stroke-linejoin:round;stroke-miterlimit:1.5">
      <path
         d="M 407.563,374.824 380.321,285.085"
         style="fill:none;stroke:#000000;stroke-width:4.17px"
         id="path3821" />
    </g>
    <g
       transform="matrix(0.26458333,0,0,0.26458333,-5.7516713,-5.6108046)"
       id="g3827"
       style="clip-rule:evenodd;fill-rule:evenodd;stroke-linecap:round;stroke-linejoin:round;stroke-miterlimit:1.5">
      <path
         d="m 375.514,192.141 3.205,91.342"
         style="fill:none;stroke:#000000;stroke-width:4.17px"
         id="path3825" />
    </g>
    <g
       transform="matrix(0.26458333,0,0,0.26458333,-5.7516713,-5.6108046)"
       id="g3831"
       style="clip-rule:evenodd;fill-rule:evenodd;stroke-linecap:round;stroke-linejoin:round;stroke-miterlimit:1.5">
      <path
         d="M 497.303,241.818 380.321,285.085"
         style="fill:none;stroke:#000000;stroke-width:4.17px"
         id="path3829" />
    </g>
    <g
       transform="matrix(0.26458333,0,0,0.26458333,-7.4476243,-4.3388446)"
       id="g3839"
       style="clip-rule:evenodd;fill-rule:evenodd;stroke-linecap:round;stroke-linejoin:round;stroke-miterlimit:1.5">
      <g
         transform="translate(39.2874,13.3273)"
         id="g3837">
        <path
           d="m 292.191,299.77 33.561,-9.715 -12.365,32.678 z"
           id="path3833" />
        <path
           d="m 265.717,345.472 41.665,-38.46"
           style="fill:none;stroke:#000000;stroke-width:4.17px"
           id="path3835" />
      </g>
    </g>
    <g
       transform="matrix(0.2518656,-0.08104399,0.08104399,0.2518656,210.42707,20.450946)"
       id="g3847"
       style="clip-rule:evenodd;fill-rule:evenodd;stroke-linecap:round;stroke-linejoin:round;stroke-miterlimit:1.5">
      <g
         transform="matrix(0.951933,0.306308,-0.306308,0.951933,-721.866,-316.703)"
         id="g3845">
        <path
           d="m 1195.62,276.88 28.98,-19.528 -1.76,34.894 z"
           id="path3841" />
        <path
           d="m 1184.42,328.494 27.88,-49.373"
           style="fill:none;stroke:#000000;stroke-width:4.17px"
           id="path3843" />
      </g>
    </g>
    <g
       transform="matrix(-0.26420814,-0.0140854,0.0140854,-0.26420814,128.26971,390.11184)"
       id="g3855"
       style="clip-rule:evenodd;fill-rule:evenodd;stroke-linecap:round;stroke-linejoin:round;stroke-miterlimit:1.5">
      <g
         transform="rotate(176.94835,256.50802,732.44706)"
         id="g3853">
        <path
           d="m 159.32,1147.21 -34.03,7.91 14.086,-31.97 z"
           id="path3849" />
        <path
           d="m 188.189,1102.98 -43.653,36.19"
           style="fill:none;stroke:#000000;stroke-width:4.17px"
           id="path3851" />
      </g>
    </g>
    <g
       transform="matrix(0.21812911,0.05489231,-0.05449808,0.21656172,31.456021,-2.3942446)"
       id="g3859"
       style="clip-rule:evenodd;fill-rule:evenodd;stroke-linecap:round;stroke-linejoin:round;stroke-miterlimit:1.5">
      <path
         d="m 407.578,276.743 48.85,97.699 h -97.7 z"
         style="fill:#f5f5f5;stroke:#000000;stroke-width:4.92px"
         id="path3857" />
    </g>
    <g
       transform="matrix(0.21960549,0.04865105,-0.04830154,0.21802725,-27.299735,-29.498264)"
       id="g3863"
       style="clip-rule:evenodd;fill-rule:evenodd;stroke-linecap:round;stroke-linejoin:round;stroke-miterlimit:1.5">
      <path
         d="m 407.578,276.743 48.85,97.699 h -97.7 z"
         style="fill:#f5f5f5;stroke:#000000;stroke-width:4.92px"
         id="path3861" />
    </g>
    <g
       transform="matrix(0.22147239,0.03928745,-0.03900514,0.21988065,48.283785,-32.221084)"
       id="g3867"
       style="clip-rule:evenodd;fill-rule:evenodd;stroke-linecap:round;stroke-linejoin:round;stroke-miterlimit:1.5">
      <path
         d="m 407.578,276.743 48.85,97.699 h -97.7 z"
         style="fill:#f5f5f5;stroke:#000000;stroke-width:4.92px"
         id="path3865" />
    </g>
    <g
       transform="matrix(0.15774194,0.16034623,-0.15919397,0.15660846,84.390418,-73.341574)"
       id="g3871"
       style="clip-rule:evenodd;fill-rule:evenodd;stroke-linecap:round;stroke-linejoin:round;stroke-miterlimit:1.5">
      <path
         d="m 407.578,276.743 48.85,97.699 h -97.7 z"
         style="fill:#f5f5f5;stroke:#000000;stroke-width:4.92px"
         id="path3869" />
    </g>
    <g
       transform="matrix(0.26458333,0,0,0.26458333,-5.7516713,-5.6108046)"
       id="g3879"
       style="clip-rule:evenodd;fill-rule:evenodd;stroke-linecap:round;stroke-linejoin:round;stroke-miterlimit:1.5">
      <g
         transform="translate(32.8775,18.1347)"
         id="g3877">
        <path
           d="m 343.145,962.183 29.112,19.318 -32.921,11.699 z"
           id="path3873" />
        <path
           d="m 164.76,956.019 182.684,22.435"
           style="fill:none;stroke:#000000;stroke-width:4.17px"
           id="path3875" />
      </g>
    </g>
    <g
       transform="matrix(0.26458333,0,0,0.26458333,-5.7516713,-5.6108046)"
       id="g3887"
       style="clip-rule:evenodd;fill-rule:evenodd;stroke-linecap:round;stroke-linejoin:round;stroke-miterlimit:1.5">
      <g
         transform="translate(32.8775,18.1347)"
         id="g3885">
        <path
           d="m 362.959,970.333 -15.084,31.517 -16.162,-30.978 z"
           id="path3881" />
        <path
           d="m 345.841,883.907 1.603,92.944"
           style="fill:none;stroke:#000000;stroke-width:4.17px"
           id="path3883" />
      </g>
    </g>
    <g
       transform="matrix(0.26458333,0,0,0.26458333,-5.7516713,-5.6108046)"
       id="g3895"
       style="clip-rule:evenodd;fill-rule:evenodd;stroke-linecap:round;stroke-linejoin:round;stroke-miterlimit:1.5">
      <g
         transform="translate(32.8775,18.1347)"
         id="g3893">
        <path
           d="m 358.574,987.871 -34.681,-4.234 24.196,-25.205 z"
           id="path3889" />
        <path
           d="M 464.425,933.584 347.444,975.249"
           style="fill:none;stroke:#000000;stroke-width:4.17px"
           id="path3891" />
      </g>
    </g>
    <g
       transform="matrix(0.21960549,0.04865105,-0.04830154,0.21802725,-27.089391,158.1162)"
       id="g3899"
       style="clip-rule:evenodd;fill-rule:evenodd;stroke-linecap:round;stroke-linejoin:round;stroke-miterlimit:1.5">
      <path
         d="m 407.578,276.743 48.85,97.699 h -97.7 z"
         style="fill:#f5f5f5;stroke:#000000;stroke-width:4.92px"
         id="path3897" />
    </g>
    <g
       transform="matrix(0.22492943,4.3275249e-4,-4.2964099e-4,0.22331309,-76.934509,360.16102)"
       id="g3903"
       style="clip-rule:evenodd;fill-rule:evenodd;stroke-linecap:round;stroke-linejoin:round;stroke-miterlimit:1.5">
      <path
         d="m 407.578,276.743 48.85,97.699 h -97.7 z"
         style="fill:#f5f5f5;stroke:#000000;stroke-width:4.92px"
         id="path3901" />
    </g>
    <g
       transform="matrix(0.15774194,0.16034623,-0.15919397,0.15660846,84.600758,114.27262)"
       id="g3907"
       style="clip-rule:evenodd;fill-rule:evenodd;stroke-linecap:round;stroke-linejoin:round;stroke-miterlimit:1.5">
      <path
         d="m 407.578,276.743 48.85,97.699 h -97.7 z"
         style="fill:#f5f5f5;stroke:#000000;stroke-width:4.92px"
         id="path3905" />
    </g>
    <g
       transform="matrix(0.22147239,0.03928745,-0.03900514,0.21988065,48.494129,155.3931)"
       id="g3911"
       style="clip-rule:evenodd;fill-rule:evenodd;stroke-linecap:round;stroke-linejoin:round;stroke-miterlimit:1.5">
      <path
         d="m 407.578,276.743 48.85,97.699 h -97.7 z"
         style="fill:#f5f5f5;stroke:#000000;stroke-width:4.92px"
         id="path3909" />
    </g>
    <g
       transform="matrix(0.26458333,0,0,0.26458333,-5.7516713,-5.6108046)"
       id="g3915"
       style="clip-rule:evenodd;fill-rule:evenodd;stroke-linecap:round;stroke-linejoin:round;stroke-miterlimit:1.5">
      <path
         d="M 378.719,993.383 264.942,1092.74"
         style="fill:none;stroke:#000000;stroke-width:4.17px;stroke-dasharray:4.17, 4.17"
         id="path3913" />
    </g>
    <g
       transform="matrix(0.26458333,0,0,0.26458333,16.578527,2.7654858)"
       id="g3921"
       style="clip-rule:evenodd;fill-rule:evenodd;stroke-linecap:round;stroke-linejoin:round;stroke-miterlimit:1.5">
      <text
         x="53.633999"
         y="1511.95"
         style="font-size:50px;font-family:ArialMT, Arial, sans-serif"
         id="text3919">Active <tspan
   x="200.924 234.274"
   y="1511.95 1511.95"
   id="tspan3917">Ag</tspan>ent</text>
    </g>
    <g
       transform="matrix(0.26458333,0,0,0.26458333,33.400179,2.0144654)"
       id="g3925"
       style="clip-rule:evenodd;fill-rule:evenodd;stroke-linecap:round;stroke-linejoin:round;stroke-miterlimit:1.5">
      <text
         x="897.388"
         y="1502.3101"
         style="font-size:50px;font-family:ArialMT, Arial, sans-serif"
         id="text3923">Static Obstacle</text>
    </g>
    <g
       transform="matrix(0.26458333,0,0,0.26458333,-91.716515,18.617466)"
       id="g3929"
       style="clip-rule:evenodd;fill-rule:evenodd;stroke-linecap:round;stroke-linejoin:round;stroke-miterlimit:1.5">
      <text
         x="1375.39"
         y="1561.0601"
         style="font-size:50px;font-family:ArialMT, Arial, sans-serif"
         id="text3927">Mobile Obstacle</text>
    </g>
  </g>
</svg>
